<?xml version="1.0" encoding="UTF-8"?>
<svg id="Capa_2" data-name="Capa 2" xmlns="http://www.w3.org/2000/svg" xmlns:xlink="http://www.w3.org/1999/xlink" viewBox="0 0 1808.44 1048.82">
  <defs>
    <style>
      .cls-1 {
        fill: none;
      }

      .cls-2 {
        fill: url(#Motivo_nuevo);
      }

      .cls-3 {
        fill: #e9e2d6;
      }
    </style>
    <pattern id="Motivo_nuevo" data-name="Motivo nuevo" x="0" y="0" width="214.23" height="228.96" patternTransform="translate(-3515.42 -238.65)" patternUnits="userSpaceOnUse" viewBox="0 0 214.23 228.96">
      <g>
        <rect class="cls-1" width="214.23" height="228.96"/>
        <path class="cls-3" d="M200.35,126.76l19.08,22.65,10.08-27.84-29.15,5.2ZM213.2,171.2l20.55,24.39-34.63-12.53,14.08-11.86ZM237.59,163.48l-8.51-3.08,11.79-32.58,8.51,3.08-11.79,32.58ZM245.99,190.51l-9.79-11.63,21.8-18.36,9.79,11.63-21.8,18.36ZM207,157.34c0,5.61-4.55,10.16-10.16,10.16s-10.16-4.55-10.16-10.16,4.55-10.16,10.16-10.16,10.16,4.55,10.16,10.16ZM169.52,207.26l-7.13-20.87,20.87-7.13,7.13,20.87-20.87,7.13ZM193.58,221.87c-1.52-8.53,4.25-16.8,12.78-18.32,8.53-1.52,16.8,4.25,18.32,12.78-10.37,1.85-20.73,3.69-31.1,5.54ZM161.83,167.65c-4.19-14.06,3.33-29.82,17.25-34.45h0s2.61,7.87,2.61,7.87c-9.93,3.3-15.3,14.01-12,23.94l-7.87,2.61v.02Z"/>
        <path class="cls-3" d="M93.23,184l19.08,22.65,10.08-27.84-29.15,5.2ZM106.08,228.44l20.55,24.39-34.63-12.53,14.08-11.86ZM130.47,220.72l-8.51-3.08,11.79-32.58,8.51,3.08-11.79,32.58ZM138.87,247.75l-9.79-11.63,21.8-18.36,9.79,11.63-21.8,18.36ZM99.89,214.58c0,5.61-4.55,10.16-10.16,10.16s-10.16-4.55-10.16-10.16,4.55-10.16,10.16-10.16,10.16,4.55,10.16,10.16ZM62.41,264.5l-7.13-20.87,20.87-7.13,7.13,20.87-20.87,7.13ZM86.46,279.11c-1.52-8.53,4.25-16.8,12.78-18.32,8.53-1.52,16.8,4.25,18.32,12.78-10.37,1.85-20.73,3.69-31.1,5.54ZM54.71,224.89c-4.19-14.06,3.33-29.82,17.25-34.45h0s2.61,7.87,2.61,7.87c-9.93,3.3-15.3,14.01-12,23.94l-7.87,2.61v.02Z"/>
        <path class="cls-3" d="M-13.88,126.76l19.08,22.65,10.08-27.84-29.15,5.2ZM-1.04,171.2l20.55,24.39-34.63-12.53,14.08-11.86ZM23.35,163.48l-8.51-3.08,11.79-32.58,8.51,3.08-11.79,32.58ZM31.76,190.51l-9.79-11.63,21.8-18.36,9.79,11.63-21.8,18.36ZM-7.23,157.34c0,5.61-4.55,10.16-10.16,10.16s-10.16-4.55-10.16-10.16,4.55-10.16,10.16-10.16,10.16,4.55,10.16,10.16ZM-44.71,207.26l-7.13-20.87,20.87-7.13,7.13,20.87-20.87,7.13ZM-20.66,221.87c-1.52-8.53,4.25-16.8,12.78-18.32,8.53-1.52,16.8,4.25,18.32,12.78-10.37,1.85-20.73,3.69-31.1,5.54ZM-52.4,167.65c-4.19-14.06,3.33-29.82,17.25-34.45h0s2.61,7.87,2.61,7.87c-9.93,3.3-15.3,14.01-12,23.94l-7.87,2.61v.02Z"/>
        <path class="cls-3" d="M200.35,12.28l19.08,22.65,10.08-27.84-29.15,5.2ZM213.2,56.72l20.55,24.39-34.63-12.53,14.08-11.86ZM237.59,49l-8.51-3.08,11.79-32.58,8.51,3.08-11.79,32.58ZM245.99,76.03l-9.79-11.63,21.8-18.36,9.79,11.63-21.8,18.36ZM207,42.86c0,5.61-4.55,10.16-10.16,10.16s-10.16-4.55-10.16-10.16,4.55-10.16,10.16-10.16,10.16,4.55,10.16,10.16ZM169.52,92.78l-7.13-20.87,20.87-7.13,7.13,20.87-20.87,7.13ZM193.58,107.39c-1.52-8.53,4.25-16.8,12.78-18.32,8.53-1.52,16.8,4.25,18.32,12.78-10.37,1.85-20.73,3.69-31.1,5.54ZM161.83,53.17c-4.19-14.06,3.33-29.82,17.25-34.45h0s2.61,7.87,2.61,7.87c-9.93,3.3-15.3,14.01-12,23.94l-7.87,2.61v.02Z"/>
        <path class="cls-3" d="M93.23,69.52l19.08,22.65,10.08-27.84-29.15,5.2ZM106.08,113.96l20.55,24.39-34.63-12.53,14.08-11.86ZM130.47,106.24l-8.51-3.08,11.79-32.58,8.51,3.08-11.79,32.58ZM138.87,133.27l-9.79-11.63,21.8-18.36,9.79,11.63-21.8,18.36ZM99.89,100.1c0,5.61-4.55,10.16-10.16,10.16s-10.16-4.55-10.16-10.16,4.55-10.16,10.16-10.16,10.16,4.55,10.16,10.16ZM62.41,150.02l-7.13-20.87,20.87-7.13,7.13,20.87-20.87,7.13ZM86.46,164.63c-1.52-8.53,4.25-16.8,12.78-18.32,8.53-1.52,16.8,4.25,18.32,12.78-10.37,1.85-20.73,3.69-31.1,5.54ZM54.71,110.41c-4.19-14.06,3.33-29.82,17.25-34.45h0s2.61,7.87,2.61,7.87c-9.93,3.3-15.3,14.01-12,23.94l-7.87,2.61v.02Z"/>
        <path class="cls-3" d="M-13.88,12.28L5.19,34.93,15.27,7.09l-29.15,5.2ZM-1.04,56.72l20.55,24.39-34.63-12.53L-1.04,56.72ZM23.35,49l-8.51-3.08L26.63,13.34l8.51,3.08-11.79,32.58ZM31.76,76.03l-9.79-11.63,21.8-18.36,9.79,11.63-21.8,18.36ZM-7.23,42.86c0,5.61-4.55,10.16-10.16,10.16s-10.16-4.55-10.16-10.16,4.55-10.16,10.16-10.16,10.16,4.55,10.16,10.16ZM-44.71,92.78l-7.13-20.87,20.87-7.13,7.13,20.87-20.87,7.13ZM-20.66,107.39c-1.52-8.53,4.25-16.8,12.78-18.32,8.53-1.52,16.8,4.25,18.32,12.78-10.37,1.85-20.73,3.69-31.1,5.54ZM-52.4,53.17c-4.19-14.06,3.33-29.82,17.25-34.45h0s2.61,7.87,2.61,7.87c-9.93,3.3-15.3,14.01-12,23.94l-7.87,2.61v.02Z"/>
        <path class="cls-3" d="M93.23-44.96l19.08,22.65,10.08-27.84-29.15,5.2ZM106.08-.52l20.55,24.39-34.63-12.53L106.08-.52ZM130.47-8.24l-8.51-3.08,11.79-32.58,8.51,3.08-11.79,32.58ZM138.87,18.79l-9.79-11.63,21.8-18.36L160.67.43l-21.8,18.36ZM99.89-14.37c0,5.61-4.55,10.16-10.16,10.16s-10.16-4.55-10.16-10.16,4.55-10.16,10.16-10.16,10.16,4.55,10.16,10.16ZM62.41,35.55l-7.13-20.87,20.87-7.13,7.13,20.87-20.87,7.13ZM86.46,50.15c-1.52-8.53,4.25-16.8,12.78-18.32,8.53-1.52,16.8,4.25,18.32,12.78-10.37,1.85-20.73,3.69-31.1,5.54ZM54.71-4.07c-4.19-14.06,3.33-29.82,17.25-34.45h0s2.61,7.87,2.61,7.87c-9.93,3.3-15.3,14.01-12,23.94l-7.87,2.61v.02Z"/>
      </g>
    </pattern>
  </defs>
  <g id="Capa_1-2" data-name="Capa 1">
    <rect id="Patron" class="cls-2" width="1808.44" height="1048.82"/>
  </g>
</svg>