<?xml version="1.0" encoding="UTF-8"?>
<svg id="Capa_2" data-name="Capa 2" xmlns="http://www.w3.org/2000/svg" viewBox="0 0 752.96 336.3">
  <defs>
    <style>
      .cls-1 {
        fill: #86cde8;
      }

      .cls-2 {
        fill: #73bb76;
      }

      .cls-3 {
        fill: #d02738;
      }

      .cls-4 {
        fill: #f59f2d;
      }

      .cls-5 {
        fill: #f3ede2;
      }
    </style>
  </defs>
  <g id="Capa_1-2" data-name="Capa 1">
    <g id="Logo">
      <path class="cls-3" d="M751.49,319.78l-67.63-117.13c-4.19-7.25-14.66-7.25-18.85,0l-67.63,117.13c-4.19,7.25,1.05,16.32,9.42,16.32h135.25c8.38,0,13.61-9.07,9.42-16.32ZM678.51,335.77h-6.82v-25.86c0-1.1,1.53-2,3.41-2s3.41.89,3.41,2v25.86Z"/>
      <path class="cls-3" d="M423.44,147.05l-67.63-117.13c-4.19-7.25-14.66-7.25-18.85,0l-67.63,117.13c-4.19,7.25,1.05,16.32,9.42,16.32h135.25c8.38,0,13.61-9.07,9.42-16.32ZM350.47,163.03h-6.82v-25.86c0-1.1,1.53-2,3.41-2s3.41.89,3.41,2v25.86Z"/>
      <circle class="cls-4" cx="195.35" cy="267.76" r="68.53"/>
      <path class="cls-5" d="M195.72,248.85h0c-1.43,0-2.6.81-2.6,1.8v39.74c0,1,1.16,1.8,2.6,1.8h0c1.43,0,2.6-.81,2.6-1.8v-39.74c0-1-1.16-1.8-2.6-1.8Z"/>
      <path class="cls-5" d="M219.25,269.38h0c0-1.51-.88-2.74-1.96-2.74h-43.16c-1.08,0-1.96,1.23-1.96,2.74h0c0,1.51.88,2.74,1.96,2.74h43.16c1.08,0,1.96-1.23,1.96-2.74Z"/>
      <path class="cls-5" d="M198.32,315.09v21.21h-5.19v-21.21c0-.9,1.16-1.64,2.6-1.64h0c1.43,0,2.6.73,2.6,1.64Z"/>
      <path class="cls-5" d="M193.13,220.44v-21.21s5.19,0,5.19,0v21.21c0,.9-1.16,1.64-2.6,1.64h0c-1.43,0-2.6-.73-2.6-1.64Z"/>
      <path class="cls-5" d="M241.24,266.64h22.64s0,5.48,0,5.48h-22.64c-.97,0-1.75-1.23-1.75-2.74h0c0-1.51.78-2.74,1.75-2.74Z"/>
      <path class="cls-5" d="M149.86,272.12h-23.04s0-5.48,0-5.48h23.04c.98,0,1.78,1.23,1.78,2.74h0c0,1.51-.8,2.74-1.78,2.74Z"/>
      <path class="cls-2" d="M103.95,163.2v-8.19l15.32-5.53c1.35-.43,2.41-1.08,3.19-1.97.78-.89,1.17-2.11,1.17-3.67V31.81c0-1.56-.39-2.77-1.17-3.62-.78-.85-1.85-1.45-3.19-1.81l-15.32-5.53v-8.19h73.51c6.31,0,13.09.71,20.32,2.13,7.23,1.42,14.31,3.8,21.23,7.13,6.92,3.33,13.21,7.87,18.88,13.62,5.67,5.74,10.18,12.93,13.51,21.54,3.33,8.62,5,18.99,5,31.12,0,17.09-3.56,31.17-10.69,42.24-7.13,11.06-16.74,19.29-28.83,24.68-12.09,5.39-25.59,8.09-40.48,8.09h-72.45ZM157.14,28.19v119.37h20.64c14.68,0,25.46-4.93,32.34-14.79,6.88-9.86,10.32-23.65,10.32-41.39,0-13.05-1.97-24.27-5.9-33.67-3.94-9.4-9.5-16.67-16.7-21.81-7.2-5.14-15.69-7.71-25.48-7.71h-15.21Z"/>
      <path class="cls-1" d="M443.04,163.2v-7.98l13.83-4.89c1.49-.49,2.61-1.15,3.35-1.97.75-.81,1.12-2,1.12-3.56V24.15c0-1.7-.44-3.05-1.33-4.04-.89-.99-2.22-1.81-3.99-2.45l-14.15-5.42v-7.66l51.28-4.57v144.8c0,1.56.43,2.75,1.28,3.56.85.82,1.88,1.47,3.09,1.97l13.19,4.89v7.98h-67.66Z"/>
      <path class="cls-1" d="M0,335.65v-8.19l15.32-5.53c1.21-.43,2.23-1.08,3.09-1.97.85-.89,1.28-2.11,1.28-3.67v-112.03c0-1.56-.41-2.78-1.22-3.67-.82-.89-1.86-1.47-3.14-1.76l-15.32-5.53v-8.19h126.82v41.07h-11.7l-7.02-21.38c-.28-1.21-.8-2.16-1.54-2.87-.75-.71-1.72-1.06-2.93-1.06h-50.43v50.64h30.43c1.42,0,2.45-.35,3.09-1.06.64-.71,1.13-1.6,1.49-2.66l6.28-17.45h9.79v57.45h-9.79l-6.28-17.23c-.43-1.28-.94-2.23-1.54-2.87-.6-.64-1.61-.96-3.03-.96h-30.43v49.58c0,1.63.43,2.89,1.28,3.78.85.89,1.95,1.51,3.3,1.86l16.6,5.53v8.19H0Z"/>
      <path class="cls-2" d="M268.55,335.65v-7.98l12.02-4.57c1.28-.49,2.34-1.15,3.19-1.97.85-.81,1.28-2,1.28-3.56v-66.49c0-2.55-.32-4.43-.96-5.64-.64-1.21-2.02-2.2-4.15-2.98l-12.45-4.89v-7.66l47.88-6.92v23.72h.64c3.4-5.32,6.83-9.8,10.27-13.46,3.44-3.65,7.09-6.42,10.96-8.3,3.87-1.88,8.03-2.82,12.5-2.82,3.76,0,7.09.37,10,1.12,2.91.74,5.74,1.9,8.51,3.46v34.15h-17.23l-3.83-7.98c-.5-1.2-1.77-2.41-3.83-3.62-2.06-1.21-4.22-1.81-6.49-1.81-2.41,0-4.73.27-6.97.8-2.23.53-4.42,1.51-6.54,2.93-2.13,1.42-4.33,3.44-6.6,6.06v60.32c0,2.77,1.49,4.61,4.47,5.53l15.43,4.57v7.98h-68.09Z"/>
      <path class="cls-1" d="M451.74,335.65v-7.98l9.89-4.57c1.42-.49,2.52-1.15,3.3-1.97.78-.81,1.17-2.04,1.17-3.67v-45.53c0-6.45-.44-11.88-1.33-16.28-.89-4.4-2.61-7.73-5.16-10-2.55-2.27-6.38-3.4-11.49-3.4-3.48,0-7.11.48-10.9,1.44-3.8.96-6.86,3.49-9.2,7.61v66.28c0,1.49.41,2.62,1.22,3.4.81.78,1.83,1.49,3.03,2.13l9.15,4.57v7.98h-61.49v-7.98l11.91-4.57c1.28-.43,2.32-1.06,3.14-1.91s1.22-2.06,1.22-3.62v-69.15c0-1.7-.44-3.03-1.33-3.99-.89-.96-2.18-1.72-3.88-2.29l-11.06-4.47v-7.66l46.6-7.02v17.87h.85c6.03-8.16,12-13.32,17.93-15.48,5.92-2.16,11.65-3.25,17.18-3.25,4.61,0,9.1.69,13.46,2.07,4.36,1.38,8.23,3.74,11.6,7.08,3.37,3.33,5.94,8.02,7.71,14.04l1.7,2.55v69.58c0,1.7.41,2.89,1.22,3.56.81.67,1.86,1.37,3.14,2.07l8.72,4.57v7.98h-58.3ZM520.58,335.65v-7.98l10-4.57c1.42-.49,2.52-1.17,3.3-2.02.78-.85,1.17-2.13,1.17-3.83v-45.32c0-6.45-.44-11.88-1.33-16.28-.89-4.4-2.61-7.73-5.16-10-2.55-2.27-6.42-3.4-11.6-3.4-3.33,0-7.07.58-11.22,1.76-4.15,1.17-7.43,4.27-9.84,9.31l-2.87-7.98c5.18-7.3,10-12.57,14.47-15.8,4.47-3.23,8.71-5.27,12.71-6.12,4.01-.85,7.85-1.28,11.54-1.28,6.45,0,12.34,1.3,17.66,3.88,5.32,2.59,9.58,6.69,12.77,12.29,3.19,5.6,4.79,12.87,4.79,21.81v57.34c0,1.63.39,2.82,1.17,3.56.78.75,1.84,1.44,3.19,2.07l10.53,4.57v7.98h-61.28Z"/>
      <path class="cls-4" d="M649.14,82.55c-5.82-32.72-34.68-57.9-68.97-57.9s-63.16,25.18-68.97,57.9c-.32,1.81-3.07,30.51,8.87,47.51,7.37,10.5,14.7,18.59,25.41,24.41,10.71,5.82,22.99,8.74,36.85,8.74,12.79,0,24.67-2.61,35.65-7.82,10.97-5.21,19.92-10.64,26.85-16.27v-14.79h-5.2c-2.84,1.69-6.26,3.48-10.26,5.35-4,1.88-8.58,3.52-13.73,4.93-5.15,1.41-11.02,2.11-17.59,2.11-11.19,0-20.19-2.21-26.99-6.62-6.8-4.41-11.75-10.8-14.86-19.16-1.8-4.84-3.08-10.26-3.83-16.24h86.57c6.43,0,11.32-5.81,10.2-12.14Z"/>
      <path class="cls-5" d="M583.41,95.53h-6.82v-25.86c0-1.1,1.53-2,3.41-2s3.41.89,3.41,2v25.86Z"/>
    </g>
  </g>
</svg>