<?xml version="1.0" encoding="UTF-8"?>
<svg id="Capa_2" data-name="Capa 2" xmlns="http://www.w3.org/2000/svg" viewBox="0 0 237.21 444.77">
  <defs>
    <style>
      .cls-1 {
        fill: #87cde8;
      }
    </style>
  </defs>
  <g id="Capa_1-2" data-name="Capa 1">
    <path class="cls-1" d="M182.16,217.71h55.05V30.04c0-16.59-13.45-30.04-30.04-30.04h-82.33s.26,0,.26,0v55.05c0,2.35-2.54,4.25-5.67,4.25s-5.67-1.9-5.67-4.25V0H30.04C13.45,0,0,13.45,0,30.04v186.67h55.05c2.35,0,4.25,2.54,4.25,5.67s-1.9,5.67-4.25,5.67H0v186.67c0,16.59,13.45,30.04,30.04,30.04h82.89v-55.05c0-2.35,2.54-4.25,5.67-4.25s5.67,1.9,5.67,4.25v55.05h82.89c16.59,0,30.04-13.45,30.04-30.04v-185.67h-55.05c-2.35,0-4.25-2.54-4.25-5.67s1.9-5.67,4.25-5.67Z"/>
  </g>
</svg>